<?xml version="1.0" standalone="no"?>
<!DOCTYPE svg PUBLIC "-//W3C//DTD SVG 20010904//EN"
 "http://www.w3.org/TR/2001/REC-SVG-20010904/DTD/svg10.dtd">
<svg version="1.0" xmlns="http://www.w3.org/2000/svg"
 width="150.000000pt" height="150.000000pt" viewBox="0 0 150.000000 150.000000"
 preserveAspectRatio="xMidYMid meet">
<metadata>
Created by potrace 1.16, written by Peter Selinger 2001-2019
</metadata>
<g transform="translate(0.000000,150.000000) scale(0.100000,-0.100000)"
fill="#000000" stroke="none">
<path d="M0 1155 l0 -345 30 0 c20 0 30 -5 30 -15 0 -8 5 -15 10 -15 6 0 10
-6 10 -12 0 -27 36 -98 52 -103 9 -3 19 -16 22 -28 6 -25 118 -147 135 -147 6
0 11 -4 11 -10 0 -5 21 -20 46 -31 25 -12 48 -28 51 -36 3 -7 13 -13 23 -13
10 0 23 -7 30 -15 7 -8 23 -15 37 -15 13 0 26 -6 29 -14 3 -9 28 -17 67 -21
69 -7 117 -22 117 -37 0 -30 -30 -38 -144 -38 -64 0 -116 4 -116 9 0 9 -49 25
-56 18 -3 -2 -2 -12 2 -21 4 -10 18 -16 40 -16 31 0 34 -3 34 -30 0 -25 -4
-30 -36 -36 -45 -8 -127 1 -132 15 -2 6 -14 11 -27 11 -13 0 -27 5 -30 10 -3
6 -14 10 -23 10 -20 1 -62 34 -62 49 0 6 -6 11 -13 11 -13 0 -107 96 -107 110
0 4 -7 21 -15 36 -14 27 -15 9 -15 -203 l0 -233 345 0 c304 0 345 2 345 15 0
24 42 75 61 75 9 0 42 25 73 55 31 30 61 55 66 55 6 0 10 5 10 11 0 6 13 23
29 38 15 14 36 41 45 59 9 17 21 32 26 32 6 0 10 9 10 20 0 11 4 20 9 20 5 0
16 18 25 40 9 23 23 43 32 47 11 4 14 13 10 29 -4 14 -2 24 4 24 5 0 10 11 10
24 0 13 7 29 15 36 8 7 15 25 15 41 0 15 7 34 15 43 12 12 17 54 23 195 4 99
12 185 17 190 16 16 55 1 55 -21 0 -11 6 -26 14 -33 30 -31 30 -385 0 -430 -8
-11 -14 -30 -14 -42 0 -13 -4 -23 -9 -23 -5 0 -11 -13 -14 -30 -4 -16 -16 -49
-27 -72 -11 -23 -20 -46 -20 -51 0 -5 -11 -18 -25 -29 -14 -11 -25 -28 -25
-39 0 -10 -6 -19 -12 -19 -7 0 -24 -16 -38 -35 -14 -19 -28 -35 -32 -35 -11 0
-58 -50 -58 -60 0 -6 -4 -10 -9 -10 -6 0 -22 -11 -37 -25 -15 -14 -33 -25 -40
-25 -8 0 -14 -5 -14 -10 0 -6 -12 -15 -27 -21 -16 -7 -37 -15 -48 -20 -11 -4
-29 -10 -40 -12 -11 -3 150 -5 358 -6 l377 -1 -2 178 c0 97 -3 162 -5 145 -2
-18 -8 -33 -14 -33 -5 0 -9 -11 -9 -25 0 -15 -9 -31 -25 -41 -14 -9 -25 -25
-25 -35 0 -10 -9 -24 -20 -31 -11 -7 -20 -17 -20 -23 0 -10 -14 -19 -79 -50
-40 -20 -89 -12 -100 17 -6 18 -8 18 -20 4 -8 -9 -19 -16 -25 -16 -6 0 -24
-11 -40 -25 -35 -30 -60 -38 -107 -33 -27 2 -35 8 -37 26 -3 17 2 25 17 29 12
3 21 9 21 14 0 5 7 9 16 9 9 0 18 9 21 20 3 11 12 20 19 20 8 0 14 4 14 8 0 5
11 14 25 20 15 7 25 20 25 32 0 11 5 20 11 20 15 0 34 21 53 59 9 17 25 40 35
50 10 10 26 48 36 84 10 37 22 67 26 67 5 0 9 9 9 19 0 11 5 23 10 26 5 3 10
30 10 59 0 35 5 58 15 66 8 7 15 23 15 37 0 13 -7 26 -15 29 -10 4 -15 20 -15
46 l0 39 38 -3 c36 -3 37 -4 40 -48 2 -25 7 -49 13 -54 5 -6 9 -36 9 -68 0
-32 4 -58 10 -58 6 0 10 5 10 10 0 15 47 12 53 -2 3 -7 6 195 6 450 l1 462
-262 -1 c-145 0 -257 -3 -250 -6 6 -2 12 -16 12 -29 0 -20 -5 -24 -30 -24 -16
0 -30 -4 -30 -10 0 -5 -21 -10 -47 -10 -27 -1 -66 -7 -88 -15 -22 -8 -48 -15
-58 -15 -11 0 -21 -9 -24 -20 -3 -11 -12 -20 -21 -20 -8 0 -30 -11 -48 -25
-18 -14 -37 -25 -43 -25 -6 0 -11 -5 -11 -11 0 -7 -9 -20 -21 -30 -11 -10 -19
-26 -17 -36 3 -14 7 -12 23 15 11 17 24 32 30 32 6 0 22 10 35 22 29 27 88 58
112 58 10 0 18 7 18 15 0 10 10 15 31 15 17 0 37 6 44 14 19 19 201 31 286 20
l64 -9 0 -35 0 -35 -90 -6 c-104 -7 -199 -25 -203 -39 -2 -5 -19 -12 -38 -16
-19 -3 -37 -10 -40 -15 -3 -5 -14 -9 -26 -9 -11 0 -22 -8 -25 -20 -3 -11 -13
-20 -22 -20 -9 0 -27 -9 -41 -20 -14 -11 -29 -20 -33 -20 -9 0 -66 -57 -118
-117 -14 -16 -34 -48 -44 -71 -16 -35 -24 -42 -47 -42 -28 0 -28 1 -27 55 2
39 6 55 16 55 7 0 13 11 13 25 0 26 46 105 61 105 5 0 9 8 9 18 -1 16 -1 16
-14 -1 -7 -9 -23 -17 -35 -17 -18 0 -21 6 -21 37 0 43 39 133 58 133 6 0 12 5
12 11 0 13 46 59 59 59 4 0 20 11 35 25 15 14 35 25 45 25 9 0 21 4 27 9 5 5
27 11 49 14 22 2 -141 4 -362 5 l-403 2 0 -345z m1372 125 c24 -5 55 -12 71
-15 22 -4 27 -11 27 -35 0 -17 -1 -30 -2 -31 -2 0 -57 -4 -123 -9 -151 -10
-266 -29 -283 -47 -7 -7 -24 -13 -36 -13 -13 0 -29 -7 -36 -15 -7 -8 -21 -15
-31 -15 -11 0 -19 -4 -19 -8 0 -5 -28 -21 -62 -36 -35 -16 -73 -39 -85 -52
-12 -13 -28 -24 -34 -24 -7 0 -27 -15 -44 -32 -18 -18 -43 -43 -56 -54 -13
-12 -39 -39 -58 -60 -18 -22 -41 -48 -51 -60 -10 -11 -22 -33 -26 -48 -3 -15
-13 -30 -20 -33 -8 -3 -14 -11 -14 -19 0 -9 -11 -14 -30 -14 -28 0 -30 2 -30
38 0 21 6 47 14 57 7 10 11 27 8 37 -2 10 2 20 12 24 9 3 16 15 16 25 0 10 5
19 10 19 6 0 10 10 10 21 0 12 10 32 22 43 22 22 31 33 66 88 9 15 27 32 40
37 12 6 25 18 28 26 4 8 12 15 20 15 7 0 27 14 44 30 17 17 37 30 45 30 8 0
15 4 15 10 0 10 69 44 113 54 15 3 27 11 27 16 0 6 11 10 24 10 13 0 29 7 36
15 8 10 31 15 66 15 29 0 56 5 59 10 8 13 211 13 267 0z m-1286 -177 c3 -10
10 -26 15 -35 5 -10 9 -29 9 -42 0 -16 7 -27 20 -31 11 -4 21 -16 22 -28 0
-12 2 -27 2 -32 1 -6 11 -20 24 -33 12 -12 22 -29 22 -37 0 -8 5 -15 10 -15 6
0 20 -16 31 -35 12 -19 27 -35 35 -35 8 0 14 -7 14 -15 0 -16 14 -31 74 -80
20 -16 49 -42 64 -56 15 -14 46 -36 70 -49 23 -13 42 -27 42 -32 0 -4 7 -8 15
-8 8 0 23 -4 33 -9 9 -5 24 -12 32 -15 19 -7 53 -29 60 -38 5 -7 127 -32 220
-46 43 -7 45 -8 45 -42 l0 -35 -138 -3 c-116 -2 -138 0 -143 13 -4 10 -19 15
-44 15 -21 0 -45 7 -54 15 -8 8 -19 15 -24 15 -21 0 -127 53 -143 71 -9 10
-21 19 -27 19 -6 0 -17 8 -24 18 -7 10 -36 33 -64 51 -38 24 -54 41 -58 62 -3
17 -12 29 -21 29 -8 0 -21 11 -27 25 -6 14 -15 25 -20 25 -4 0 -8 11 -8 25 0
14 -6 25 -12 25 -15 0 -38 45 -38 72 0 10 -4 18 -10 18 -5 0 -10 9 -10 20 0
10 -7 23 -16 28 -8 5 -19 26 -24 48 -11 46 -13 158 -3 167 13 13 44 7 49 -10z"/>
<path d="M2 673 c-2 -79 0 -93 14 -93 20 0 44 -24 44 -44 0 -9 5 -16 11 -16 5
0 16 -15 24 -32 7 -18 26 -45 42 -59 15 -14 36 -34 45 -45 38 -44 130 -94 169
-93 19 0 15 4 -18 19 -24 11 -43 24 -43 30 0 5 -6 10 -14 10 -15 0 -71 46
-109 89 -12 14 -37 38 -55 55 -17 17 -32 39 -32 49 0 10 -6 20 -14 23 -8 3
-20 25 -27 50 -7 24 -17 44 -21 44 -4 0 -9 24 -11 53 -2 33 -4 19 -5 -40z"/>
<path d="M1420 550 c0 -5 5 -10 10 -10 6 0 10 5 10 10 0 6 -4 10 -10 10 -5 0
-10 -4 -10 -10z"/>
<path d="M1400 476 c0 -25 -4 -48 -10 -51 -5 -3 -10 -19 -10 -35 0 -15 -7 -30
-15 -34 -8 -3 -15 -14 -15 -25 0 -11 -4 -23 -10 -26 -5 -3 -10 -14 -10 -23 0
-10 -10 -24 -21 -32 -12 -8 -28 -30 -35 -48 -8 -17 -19 -32 -24 -32 -6 0 -10
-5 -10 -12 0 -6 7 -4 18 5 10 10 24 17 30 17 6 0 13 8 17 19 3 10 14 26 25 36
11 10 20 25 20 32 0 8 9 22 20 31 21 18 50 115 50 169 0 18 5 33 10 33 6 0 10
5 10 10 0 6 -9 10 -20 10 -17 0 -20 -7 -20 -44z"/>
<path d="M1210 140 c0 -5 5 -10 10 -10 6 0 10 5 10 10 0 6 -4 10 -10 10 -5 0
-10 -4 -10 -10z"/>
</g>
</svg>
